<svg aria-hidden="true" style="position: absolute; width: 0; height: 0; overflow: hidden;" version="1.1" xmlns="http://www.w3.org/2000/svg" xmlns:xlink="http://www.w3.org/1999/xlink">
<defs>
<symbol id="icon-brush" viewBox="0 0 32 32">
<path d="M25.333 0h-18.667c-1.767 0.002-3.462 0.705-4.712 1.955s-1.953 2.944-1.955 4.712v6.667c0.003 2.474 0.988 4.847 2.737 6.596s4.122 2.734 6.596 2.737h2.667v5.333c0 1.061 0.421 2.078 1.172 2.828s1.768 1.172 2.828 1.172c1.061 0 2.078-0.421 2.828-1.172s1.172-1.768 1.172-2.828v-5.333h2.667c2.474-0.003 4.847-0.987 6.596-2.737s2.734-4.122 2.737-6.596v-6.667c-0.002-1.767-0.705-3.462-1.955-4.712s-2.944-1.953-4.712-1.955v0zM2.667 6.667c0-1.061 0.421-2.078 1.172-2.828s1.768-1.172 2.828-1.172h6.667v1.333c0 0.354 0.141 0.693 0.391 0.943s0.589 0.391 0.943 0.391c0.354 0 0.693-0.14 0.943-0.391s0.391-0.589 0.391-0.943v-1.333h2.667v4c0 0.354 0.141 0.693 0.391 0.943s0.589 0.391 0.943 0.391c0.354 0 0.693-0.14 0.943-0.391s0.391-0.589 0.391-0.943v-4h2.667v6.667c0 0.354 0.141 0.693 0.391 0.943s0.589 0.391 0.943 0.391c0.354 0 0.693-0.14 0.943-0.391s0.391-0.589 0.391-0.943v-6.421c0.777 0.275 1.451 0.783 1.928 1.455s0.735 1.475 0.739 2.3v6.667h-26.667v-6.667zM22.667 20h-4c-0.354 0-0.693 0.141-0.943 0.391s-0.391 0.589-0.391 0.943v6.667c0 0.354-0.141 0.693-0.391 0.943s-0.589 0.391-0.943 0.391c-0.354 0-0.693-0.141-0.943-0.391s-0.391-0.589-0.391-0.943v-6.667c0-0.354-0.141-0.693-0.391-0.943s-0.589-0.391-0.943-0.391h-4c-1.296-0.002-2.563-0.381-3.646-1.091s-1.937-1.721-2.455-2.909h25.536c-0.518 1.187-1.371 2.198-2.455 2.909s-2.351 1.090-3.646 1.091z"></path>
</symbol>
<symbol id="icon-fingerprint" viewBox="0 0 32 32">
<path d="M8.915 28.525c-0.28-0-0.552-0.092-0.775-0.261s-0.384-0.407-0.459-0.677-0.059-0.556 0.045-0.816c0.104-0.26 0.29-0.479 0.529-0.623 4.535-2.724 4.535-8.573 4.535-12.068 0-1.018 0.405-1.995 1.125-2.715s1.697-1.125 2.715-1.125c1.018 0 1.995 0.405 2.715 1.125s1.125 1.697 1.125 2.715c0 0.339-0.135 0.665-0.375 0.905s-0.566 0.375-0.905 0.375c-0.34 0-0.665-0.135-0.905-0.375s-0.375-0.566-0.375-0.905c0-0.34-0.135-0.665-0.375-0.905s-0.566-0.375-0.905-0.375c-0.34 0-0.665 0.135-0.905 0.375s-0.375 0.566-0.375 0.905c0 3.772 0 10.796-5.778 14.263-0.199 0.119-0.426 0.182-0.658 0.182zM15.268 30.344c2.921-2.944 4.627-7.084 5.070-12.315 0.015-0.168-0.003-0.337-0.054-0.498s-0.132-0.31-0.241-0.439c-0.108-0.129-0.241-0.235-0.391-0.313s-0.313-0.125-0.481-0.139c-0.168-0.017-0.338-0-0.499 0.049s-0.311 0.131-0.44 0.24c-0.129 0.109-0.235 0.243-0.311 0.393s-0.122 0.315-0.133 0.484c-0.398 4.681-1.816 8.192-4.337 10.728-0.239 0.241-0.373 0.567-0.372 0.906s0.137 0.665 0.378 0.904c0.241 0.239 0.567 0.373 0.906 0.372s0.665-0.137 0.904-0.378v0.005zM21.924 30.106c0.776-1.29 1.423-2.654 1.93-4.072 0.106-0.317 0.084-0.663-0.062-0.964s-0.403-0.533-0.718-0.646c-0.314-0.113-0.661-0.099-0.965 0.040s-0.542 0.391-0.663 0.703c-0.451 1.257-1.024 2.466-1.713 3.611-0.087 0.144-0.145 0.303-0.171 0.47s-0.018 0.336 0.022 0.499c0.040 0.163 0.112 0.317 0.211 0.453s0.225 0.25 0.369 0.338c0.29 0.176 0.639 0.23 0.969 0.149 0.163-0.040 0.317-0.112 0.453-0.211s0.25-0.225 0.338-0.368zM24.951 22.005c0.474-2.614 0.689-5.268 0.64-7.924-0.001-1.813-0.553-3.584-1.581-5.077s-2.486-2.639-4.18-3.287c-1.694-0.647-3.544-0.765-5.307-0.339s-3.354 1.378-4.564 2.729c-0.118 0.124-0.21 0.271-0.27 0.431s-0.088 0.331-0.081 0.502c0.007 0.171 0.048 0.339 0.121 0.494s0.176 0.294 0.304 0.408c0.127 0.114 0.277 0.202 0.439 0.257s0.333 0.078 0.504 0.066c0.171-0.012 0.337-0.058 0.49-0.135s0.288-0.185 0.399-0.315c0.864-0.965 2.001-1.645 3.26-1.949s2.581-0.221 3.791 0.242 2.251 1.281 2.986 2.348c0.735 1.067 1.129 2.331 1.13 3.627 0.047 2.492-0.151 4.982-0.591 7.436-0.065 0.333 0.006 0.678 0.195 0.959s0.483 0.476 0.816 0.541c0.081 0.016 0.164 0.024 0.247 0.024 0.296-0.001 0.583-0.104 0.812-0.293s0.384-0.451 0.441-0.742zM10.231 14.080c-0-0.357 0.029-0.714 0.088-1.066 0.038-0.17 0.041-0.345 0.010-0.516s-0.098-0.334-0.195-0.478c-0.097-0.144-0.222-0.268-0.368-0.362s-0.31-0.158-0.481-0.187c-0.171-0.029-0.347-0.023-0.516 0.018s-0.328 0.116-0.467 0.22c-0.139 0.104-0.255 0.236-0.342 0.387s-0.141 0.318-0.161 0.49c-0.085 0.493-0.127 0.993-0.128 1.494 0 5.946-1.723 8.96-5.12 8.96-0.339 0-0.665 0.135-0.905 0.375s-0.375 0.566-0.375 0.905c0 0.339 0.135 0.665 0.375 0.905s0.566 0.375 0.905 0.375c4.952 0 7.68-4.096 7.68-11.52zM27.767 29.97c2.106-5.025 3.11-10.444 2.944-15.89 0.006-2.126-0.476-4.225-1.408-6.136-0.074-0.151-0.176-0.287-0.302-0.398s-0.272-0.197-0.431-0.252c-0.159-0.055-0.327-0.078-0.495-0.068s-0.332 0.053-0.483 0.127c-0.151 0.074-0.287 0.176-0.398 0.302s-0.197 0.272-0.252 0.431c-0.055 0.159-0.078 0.327-0.068 0.495s0.053 0.332 0.127 0.483c0.762 1.562 1.156 3.278 1.152 5.016 0.161 5.080-0.764 10.136-2.712 14.83-0.069 0.153-0.108 0.319-0.113 0.487s0.022 0.336 0.082 0.493c0.059 0.157 0.149 0.302 0.264 0.424s0.253 0.221 0.407 0.291c0.166 0.076 0.346 0.115 0.529 0.115 0.245-0.001 0.484-0.072 0.69-0.205s0.369-0.322 0.47-0.545zM5.111 17.92v-3.84c0.003-3.054 1.218-5.982 3.378-8.142s5.088-3.374 8.142-3.378c2.494-0.008 4.922 0.801 6.912 2.304 0.271 0.204 0.613 0.291 0.949 0.243s0.639-0.228 0.843-0.499c0.204-0.272 0.291-0.613 0.243-0.949s-0.228-0.639-0.499-0.843c-2.433-1.836-5.4-2.825-8.448-2.816-3.733 0.004-7.312 1.489-9.951 4.129s-4.124 6.218-4.129 9.951v3.84c0 0.339 0.135 0.665 0.375 0.905s0.566 0.375 0.905 0.375 0.665-0.135 0.905-0.375c0.24-0.24 0.375-0.566 0.375-0.905z"></path>
</symbol>
<symbol id="icon-Group" viewBox="0 0 32 32">
<path d="M30.818 0.033c-0.009 0.003-0.018 0.005-0.028 0.007-0.002 0.001-0.005 0.001-0.007 0.002l-30.123 9.348c-0.392 0.122-0.659 0.484-0.66 0.894s0.265 0.774 0.657 0.896l11.615 3.647-2.194 5.886c-0.128 0.344-0.044 0.731 0.216 0.991s0.647 0.344 0.991 0.216l5.886-2.194 3.647 11.615c0.123 0.391 0.485 0.657 0.895 0.657 0 0 0.001 0 0.002 0 0.41-0.001 0.773-0.268 0.894-0.66l9.348-30.123c0.001-0.002 0.001-0.005 0.002-0.007 0.003-0.009 0.005-0.018 0.007-0.027 0.19-0.702-0.456-1.336-1.149-1.149zM4.086 10.292l22.14-6.871-12.91 9.769-9.23-2.898zM12.553 19.447l1.727-4.633 11.946-9.040-9.040 11.946-4.633 1.727zM21.708 27.914l-2.898-9.23 9.769-12.91-6.871 22.14z"></path>
</symbol>
<symbol id="icon-school-1" viewBox="0 0 32 32">
<path d="M25.333 8h-6.239c-0.531-0.379-1.129-0.655-1.761-0.816v-0.517l4.707-2.203c0.193-0.12 0.352-0.286 0.463-0.485s0.168-0.422 0.168-0.649-0.058-0.45-0.168-0.649c-0.11-0.198-0.27-0.365-0.463-0.485l-4.267-2c-0.333-0.156-0.7-0.225-1.067-0.201s-0.722 0.141-1.032 0.338c-0.31 0.198-0.565 0.471-0.741 0.794s-0.268 0.685-0.267 1.052v5.003c-0.632 0.16-1.229 0.437-1.76 0.816h-6.24c-1.767 0.002-3.462 0.705-4.712 1.955s-1.953 2.944-1.955 4.712v13.333c0 1.061 0.421 2.078 1.172 2.828s1.768 1.172 2.828 1.172h24c1.061 0 2.078-0.421 2.828-1.172s1.172-1.767 1.172-2.828v-13.333c-0.002-1.767-0.705-3.462-1.955-4.712s-2.944-1.953-4.712-1.955zM29.088 13.333h-2.879c-1.060-0.003-2.077-0.424-2.828-1.172l-1.496-1.495h3.448c0.824 0.003 1.627 0.261 2.3 0.739s1.18 1.151 1.455 1.928zM6.667 10.667h3.448l-1.496 1.495c-0.751 0.748-1.768 1.169-2.828 1.172h-2.879c0.275-0.777 0.783-1.451 1.455-1.928s1.475-0.735 2.3-0.739zM17.333 29.333h-2.667v-4c0-0.354 0.141-0.693 0.391-0.943s0.589-0.391 0.943-0.391c0.354 0 0.693 0.141 0.943 0.391s0.391 0.589 0.391 0.943v4zM28 29.333h-8v-4c0-1.061-0.421-2.078-1.172-2.828s-1.768-1.172-2.828-1.172c-1.061 0-2.078 0.421-2.828 1.172s-1.172 1.768-1.172 2.828v4h-8c-0.354 0-0.693-0.141-0.943-0.391s-0.391-0.589-0.391-0.943v-12h3.124c0.876 0.002 1.743-0.169 2.552-0.505s1.544-0.828 2.161-1.449l3.611-3.609c0.5-0.5 1.178-0.781 1.885-0.781s1.385 0.281 1.885 0.781l3.611 3.609c0.617 0.621 1.352 1.113 2.161 1.449s1.677 0.507 2.552 0.505h3.124v12c0 0.354-0.141 0.693-0.391 0.943s-0.589 0.391-0.943 0.391zM9.333 20c0 0.354-0.14 0.693-0.391 0.943s-0.589 0.391-0.943 0.391h-1.333c-0.354 0-0.693-0.141-0.943-0.391s-0.391-0.589-0.391-0.943c0-0.354 0.14-0.693 0.391-0.943s0.589-0.391 0.943-0.391h1.333c0.354 0 0.693 0.141 0.943 0.391s0.391 0.589 0.391 0.943zM9.333 25.333c0 0.354-0.14 0.693-0.391 0.943s-0.589 0.391-0.943 0.391h-1.333c-0.354 0-0.693-0.141-0.943-0.391s-0.391-0.589-0.391-0.943c0-0.354 0.14-0.693 0.391-0.943s0.589-0.391 0.943-0.391h1.333c0.354 0 0.693 0.141 0.943 0.391s0.391 0.589 0.391 0.943zM26.667 20c0 0.354-0.141 0.693-0.391 0.943s-0.589 0.391-0.943 0.391h-1.333c-0.354 0-0.693-0.141-0.943-0.391s-0.391-0.589-0.391-0.943c0-0.354 0.141-0.693 0.391-0.943s0.589-0.391 0.943-0.391h1.333c0.354 0 0.693 0.141 0.943 0.391s0.391 0.589 0.391 0.943zM26.667 25.333c0 0.354-0.141 0.693-0.391 0.943s-0.589 0.391-0.943 0.391h-1.333c-0.354 0-0.693-0.141-0.943-0.391s-0.391-0.589-0.391-0.943c0-0.354 0.141-0.693 0.391-0.943s0.589-0.391 0.943-0.391h1.333c0.354 0 0.693 0.141 0.943 0.391s0.391 0.589 0.391 0.943zM18.667 16c0 0.527-0.156 1.043-0.449 1.481s-0.709 0.78-1.197 0.982c-0.487 0.202-1.023 0.255-1.541 0.152s-0.992-0.357-1.365-0.73-0.627-0.848-0.73-1.365c-0.103-0.517-0.050-1.053 0.152-1.541s0.544-0.904 0.982-1.197c0.439-0.293 0.954-0.449 1.481-0.449 0.707 0 1.385 0.281 1.886 0.781s0.781 1.178 0.781 1.886z"></path>
</symbol>
<symbol id="icon-search" viewBox="0 0 32 32">
<path d="M31.626 29.742l-7.952-7.952c2.167-2.65 3.233-6.032 2.976-9.446s-1.815-6.599-4.354-8.895c-2.539-2.297-5.863-3.53-9.286-3.444s-6.681 1.483-9.102 3.904c-2.421 2.421-3.819 5.679-3.904 9.102s1.148 6.747 3.444 9.286c2.297 2.539 5.481 4.098 8.895 4.354s6.796-0.809 9.446-2.976l7.952 7.952c0.251 0.243 0.588 0.377 0.937 0.374s0.684-0.143 0.931-0.39 0.387-0.581 0.39-0.931c0.003-0.349-0.131-0.686-0.374-0.937zM13.365 24.023c-2.108 0-4.169-0.625-5.921-1.796s-3.119-2.836-3.925-4.783-1.018-4.090-0.607-6.158c0.411-2.067 1.426-3.966 2.917-5.457s3.39-2.506 5.457-2.917c2.067-0.411 4.21-0.2 6.158 0.607s3.612 2.173 4.783 3.925c1.171 1.753 1.796 3.813 1.796 5.921-0.003 2.826-1.127 5.535-3.125 7.533s-4.707 3.122-7.533 3.125z"></path>
</symbol>
<symbol id="icon-Union" viewBox="0 0 32 32">
<path d="M30.808 0.036l0.009-0.003c0.692-0.187 1.338 0.447 1.149 1.149l-0.002 0.008c-0.002 0.006-0.003 0.012-0.005 0.019l-0.002 0.007-9.348 30.123c-0.122 0.392-0.484 0.659-0.894 0.66h-0.002c-0.41 0-0.772-0.266-0.895-0.657l-3.647-11.615-5.886 2.194c-0.343 0.128-0.731 0.044-0.991-0.216s-0.344-0.647-0.216-0.991l2.194-5.886-11.615-3.647c-0.392-0.123-0.658-0.486-0.657-0.897s0.268-0.773 0.66-0.894l30.13-9.35c0.006-0.002 0.012-0.003 0.018-0.005v0zM26.226 3.421l-22.14 6.871 9.23 2.898 12.91-9.769zM14.28 14.813l-1.727 4.633 4.633-1.727 9.040-11.946-11.946 9.040zM18.81 18.684l2.898 9.23 6.871-22.14-9.769 12.91zM6.127 19.241c0.366-0.366 0.96-0.366 1.327 0s0.366 0.96 0 1.327l-5.628 5.628c-0.366 0.366-0.96 0.366-1.327 0s-0.366-0.96 0-1.327l5.628-5.628zM12.759 24.547c-0.366-0.366-0.96-0.366-1.326 0l-5.628 5.628c-0.366 0.366-0.366 0.96 0 1.327s0.96 0.366 1.327 0l5.628-5.628c0.366-0.366 0.366-0.96 0-1.327zM6.903 23.77c0.366-0.366 0.96-0.366 1.327 0s0.366 0.96 0 1.327l-6.629 6.629c-0.366 0.366-0.96 0.366-1.327 0s-0.366-0.96 0-1.326l6.629-6.629z"></path>
</symbol>
<symbol id="icon-Vector-1" viewBox="0 0 32 32">
<path d="M30.533 11.273c-0.441-0.224-0.937-0.319-1.43-0.276s-0.964 0.224-1.36 0.521l-2.444 1.815c-0.167-1.644-0.938-3.167-2.163-4.275s-2.818-1.723-4.47-1.725h-0.113l-5.496-5.495c-0.37-0.373-0.811-0.668-1.296-0.87s-1.006-0.304-1.532-0.302h-8.896c-0.354 0-0.693 0.14-0.943 0.391s-0.391 0.589-0.391 0.943c0 0.354 0.14 0.693 0.391 0.943s0.589 0.391 0.943 0.391h8.896c0.353 0.001 0.692 0.141 0.943 0.391l3.609 3.609h-8.115c-1.767 0.002-3.462 0.705-4.712 1.955s-1.953 2.944-1.955 4.712v10.667c0.002 1.767 0.705 3.462 1.955 4.712s2.944 1.953 4.712 1.955h12c1.652-0.002 3.245-0.617 4.47-1.725s1.996-2.631 2.163-4.275l2.44 1.819c0.396 0.297 0.867 0.478 1.361 0.523s0.989-0.049 1.432-0.271 0.815-0.562 1.076-0.983c0.26-0.421 0.398-0.907 0.398-1.402v-11.361c0.002-0.495-0.135-0.981-0.396-1.403s-0.634-0.761-1.077-0.981zM22.667 24.667c0 1.061-0.421 2.078-1.172 2.828s-1.768 1.172-2.828 1.172h-12c-1.061 0-2.078-0.421-2.828-1.172s-1.172-1.767-1.172-2.828v-10.667c0-1.061 0.421-2.078 1.172-2.828s1.768-1.172 2.828-1.172h12c1.061 0 2.078 0.421 2.828 1.172s1.172 1.768 1.172 2.828v10.667zM29.333 25.009l-4-2.981v-5.389l4-2.981v11.352z"></path>
</symbol>
<symbol id="icon-Vector-2" viewBox="0 0 32 32">
<path d="M25.333 1.333h-18.667c-1.767 0.002-3.462 0.705-4.712 1.955s-1.953 2.944-1.955 4.712v16c0.002 1.767 0.705 3.462 1.955 4.712s2.944 1.953 4.712 1.955h18.667c1.767-0.002 3.462-0.705 4.712-1.955s1.953-2.944 1.955-4.712v-16c-0.002-1.767-0.705-3.462-1.955-4.712s-2.944-1.953-4.712-1.955zM6.667 4h18.667c0.798 0.002 1.578 0.242 2.239 0.69s1.172 1.084 1.468 1.826l-10.211 10.212c-0.751 0.748-1.769 1.169-2.829 1.169s-2.078-0.42-2.829-1.169l-10.211-10.212c0.296-0.741 0.808-1.377 1.468-1.826s1.44-0.689 2.239-0.69zM25.333 28h-18.667c-1.061 0-2.078-0.421-2.828-1.172s-1.172-1.767-1.172-2.828v-14l8.619 8.613c1.252 1.248 2.947 1.949 4.715 1.949s3.463-0.701 4.715-1.949l8.619-8.613v14c0 1.061-0.421 2.078-1.172 2.828s-1.767 1.172-2.828 1.172z"></path>
</symbol>
<symbol id="icon-Vector" viewBox="0 0 32 32">
<path d="M30.667 11.972c-0.354 0-0.693 0.14-0.943 0.391s-0.391 0.589-0.391 0.943v6.695h-5.333c-1.061 0-2.078 0.421-2.828 1.172s-1.172 1.768-1.172 2.828v5.333h-13.333c-1.061 0-2.078-0.421-2.828-1.172s-1.172-1.768-1.172-2.828v-18.667c0-1.061 0.421-2.078 1.172-2.828s1.768-1.172 2.828-1.172h12.056c0.354 0 0.693-0.14 0.943-0.391s0.391-0.589 0.391-0.943c0-0.354-0.141-0.693-0.391-0.943s-0.589-0.391-0.943-0.391h-12.056c-1.767 0.002-3.462 0.705-4.712 1.955s-1.953 2.944-1.955 4.712v18.667c0.002 1.767 0.705 3.462 1.955 4.712s2.944 1.953 4.712 1.955h15.124c0.876 0.003 1.744-0.169 2.553-0.504s1.544-0.827 2.162-1.448l3.541-3.544c0.621-0.617 1.113-1.352 1.449-2.161s0.507-1.677 0.505-2.552v-8.485c0-0.354-0.141-0.693-0.391-0.943s-0.589-0.391-0.943-0.391zM24.62 28.163c-0.536 0.535-1.214 0.905-1.953 1.067v-5.229c0-0.354 0.141-0.693 0.391-0.943s0.589-0.391 0.943-0.391h5.233c-0.165 0.738-0.535 1.415-1.067 1.952l-3.547 3.544z"></path>
</symbol>
<symbol id="icon-browser" viewBox="0 0 37 32">
<path d="M28.849 0h-20.364c-1.928 0.002-3.777 0.769-5.14 2.133s-2.13 3.212-2.133 5.14v17.455c0.002 1.928 0.769 3.777 2.133 5.14s3.212 2.13 5.14 2.133h20.364c1.928-0.002 3.777-0.769 5.14-2.133s2.13-3.212 2.133-5.14v-17.455c-0.002-1.928-0.769-3.777-2.133-5.14s-3.212-2.13-5.14-2.133zM8.485 2.909h20.364c1.157 0 2.267 0.46 3.085 1.278s1.278 1.928 1.278 3.086v1.455h-29.091v-1.455c0-1.157 0.46-2.267 1.278-3.086s1.928-1.278 3.086-1.278zM28.849 29.091h-20.364c-1.157 0-2.267-0.46-3.086-1.278s-1.278-1.928-1.278-3.085v-13.091h29.091v13.091c0 1.157-0.46 2.267-1.278 3.085s-1.928 1.278-3.085 1.278zM28.849 17.455c0 0.386-0.153 0.756-0.426 1.029s-0.643 0.426-1.028 0.426h-17.455c-0.386 0-0.756-0.153-1.029-0.426s-0.426-0.643-0.426-1.029c0-0.386 0.153-0.756 0.426-1.029s0.643-0.426 1.029-0.426h17.455c0.386 0 0.756 0.153 1.028 0.426s0.426 0.643 0.426 1.029zM23.030 23.273c0 0.386-0.153 0.756-0.426 1.029s-0.643 0.426-1.029 0.426h-11.636c-0.386 0-0.756-0.153-1.029-0.426s-0.426-0.643-0.426-1.029c0-0.386 0.153-0.756 0.426-1.028s0.643-0.426 1.029-0.426h11.636c0.386 0 0.756 0.153 1.029 0.426s0.426 0.643 0.426 1.028zM5.576 5.818c0-0.288 0.085-0.569 0.245-0.808s0.387-0.426 0.653-0.536c0.266-0.11 0.558-0.139 0.84-0.083s0.541 0.195 0.745 0.398c0.203 0.203 0.342 0.463 0.398 0.745s0.027 0.575-0.083 0.84c-0.11 0.266-0.297 0.493-0.536 0.653s-0.52 0.245-0.808 0.245c-0.386 0-0.756-0.153-1.029-0.426s-0.426-0.643-0.426-1.029zM9.939 5.818c0-0.288 0.085-0.569 0.245-0.808s0.387-0.426 0.653-0.536c0.266-0.11 0.558-0.139 0.84-0.083s0.541 0.195 0.745 0.398c0.203 0.203 0.342 0.463 0.398 0.745s0.027 0.575-0.083 0.84c-0.11 0.266-0.297 0.493-0.536 0.653s-0.52 0.245-0.808 0.245c-0.386 0-0.756-0.153-1.029-0.426s-0.426-0.643-0.426-1.029zM14.303 5.818c0-0.288 0.085-0.569 0.245-0.808s0.387-0.426 0.653-0.536 0.558-0.139 0.84-0.083c0.282 0.056 0.541 0.195 0.745 0.398s0.342 0.463 0.398 0.745 0.027 0.575-0.083 0.84c-0.11 0.266-0.296 0.493-0.536 0.653s-0.521 0.245-0.808 0.245c-0.386 0-0.756-0.153-1.029-0.426s-0.426-0.643-0.426-1.029z"></path>
</symbol>
</defs>
</svg>
